<?xml version="1.0" encoding="UTF-8" standalone="no"?>
<!-- Created with Inkscape (http://www.inkscape.org/) -->

<svg
   width="116.781mm"
   height="118.00418mm"
   viewBox="0 0 116.781 118.00418"
   version="1.1"
   id="svg1"
   xmlns="http://www.w3.org/2000/svg"
   xmlns:svg="http://www.w3.org/2000/svg">
  <defs
     id="defs1" />
  <g
     id="layer1"
     transform="translate(-44.450002,-89.429172)">
    <path
       fill="#000"
       d="m 72.962558,89.429167 c -1.063625,2.188633 -3.410479,3.925887 -5.758392,3.925887 3.175,0 6.35,3.175 6.35,6.35 0,-3.175 3.175,-6.35 6.35,-6.35 -2.347912,0 -4.694502,-1.737254 -5.758391,-3.925887 z m 76.791612,3.704167 c 0,2.116666 -2.11667,4.233333 -4.23334,4.233333 2.11667,0 4.23334,2.116666 4.23334,4.233333 0,-2.116667 2.11666,-4.233333 4.23333,-4.233333 -2.11667,0 -4.23333,-2.116667 -4.23333,-4.233333 z m -19.05,10.583336 c 0,3.175 -3.175,6.35 -6.35,6.35 3.175,0 6.35,3.175 6.35,6.35 0,-3.175 3.175,-6.35 6.35,-6.35 -3.175,0 -6.35,-3.175 -6.35,-6.35 z M 44.45,112.73049 v 83.66919 c 24.873479,-1.05834 52.965085,-1.49622 80.00815,-8.94927 11.34454,-2.88793 20.26973,-6.28332 26.54749,-10.14201 6.27857,-3.85842 10.22536,-8.39337 10.22536,-13.66361 -0.0238,-2.28177 -0.95515,-4.67836 -2.11985,-6.48282 -0.88265,-1.30572 -2.02141,-2.55587 -3.38137,-3.7502 0.39264,-0.96256 0.61039,-2.01798 0.61039,-3.12844 0,-4.55824 -3.64384,-8.20208 -8.20208,-8.20208 -4.55798,0 -8.20208,3.64384 -8.20208,8.20208 0,4.55798 3.6441,8.20209 8.20208,8.20209 1.69704,0 3.26655,-0.50536 4.56935,-1.37478 1.93252,1.80128 3.67401,4.05183 3.76106,6.53415 0,2.79294 -2.34421,6.15686 -7.95655,9.60596 -5.61235,3.44938 -14.17638,6.77069 -25.22908,9.58453 -24.328704,6.07457 -53.950131,8.29178 -75.81662,8.76009 6.398419,-1.25862 12.243858,-4.04124 17.145793,-7.95496 7.116763,-0.4699 13.475229,-1.03531 20.226602,-1.87272 -0.706437,-1.64994 -1.046956,-3.10885 -0.933185,-4.68577 -4.808802,0.55959 -9.777677,1.06892 -13.937192,1.40229 6.028796,-6.99558 9.671315,-16.10783 9.671315,-26.08421 0,-20.4814 -15.348479,-37.32054 -35.189583,-39.66951 z m 35.344099,19.90725 c 0.796396,1.61026 1.498336,3.27554 2.099205,4.98846 15.422562,1.50389 29.569836,3.81899 41.389566,6.8281 4.44341,1.13083 8.47645,2.345 12.08537,3.61553 0.27967,-1.60867 0.85513,-3.11944 1.67323,-4.46961 -3.78884,-1.33482 -7.98328,-2.59027 -12.58279,-3.76158 -12.78996,-3.25596 -28.067004,-5.69383 -44.664316,-7.20143 z m 3.420005,9.50304 c 0.378354,1.60682 0.668866,3.24644 0.867833,4.9149 7.058554,0.88159 13.521796,1.95871 19.188643,3.20252 8.11159,1.78064 14.62881,3.91054 18.91982,6.13727 2.14577,1.1131 3.72137,2.25531 4.65826,3.2602 0.93662,1.00489 1.20967,1.75577 1.20967,2.40189 0,0.64611 -0.27252,1.397 -1.20967,2.40188 -0.93663,1.00489 -2.51275,2.1471 -4.65826,3.2602 -4.29074,2.22673 -10.80823,4.35689 -18.91982,6.13727 -0.92684,0.20453 -1.74281,0.37254 -2.62731,0.55192 0.60457,1.6563 0.83238,3.14669 0.58631,4.74028 1.00807,-0.20003 2.091,-0.4273 3.06229,-0.64029 8.35925,-1.83462 15.17121,-4.00844 20.09166,-6.56167 2.46063,-1.27688 4.46088,-2.64398 5.9489,-4.23995 1.48775,-1.59543 2.48867,-3.53748 2.48867,-5.64964 0,-2.11191 -1.00092,-4.05395 -2.48867,-5.64992 -1.48802,-1.59543 -3.48827,-2.9628 -5.94863,-4.23942 -4.92019,-2.55322 -11.73216,-4.72731 -20.0914,-6.56166 -6.234378,-1.36843 -13.32574,-2.53736 -21.077767,-3.46551 z m 9.390062,31.69047 c -2.219854,0 -3.96875,1.7489 -3.96875,3.96875 0,2.21985 1.748896,3.96875 3.96875,3.96875 2.219854,0 3.96875,-1.7489 3.96875,-3.96875 0,-2.21985 -1.748896,-3.96875 -3.96875,-3.96875 z m 14.816664,25.13542 c 0,2.11666 -2.11666,4.23333 -4.23333,4.23333 2.11667,0 4.23333,2.11667 4.23333,4.23333 0,-2.11666 2.11667,-4.23333 4.23334,-4.23333 -2.11667,0 -4.23334,-2.11667 -4.23334,-4.23333 z"
       id="path1"
       style="fill:#c6cdc4;fill-opacity:1;stroke-width:0.264583" />
  </g>
</svg>
